<?xml version="1.0" encoding="utf-8"?>
<!-- Generator: Adobe Illustrator 16.0.3, SVG Export Plug-In . SVG Version: 6.00 Build 0)  -->
<!DOCTYPE svg PUBLIC "-//W3C//DTD SVG 1.1//EN" "http://www.w3.org/Graphics/SVG/1.1/DTD/svg11.dtd">
<svg version="1.1" id="Layer_1" xmlns="http://www.w3.org/2000/svg" xmlns:xlink="http://www.w3.org/1999/xlink" x="0px" y="0px"
	 width="556.5px" height="247px" viewBox="0 0 556.5 247" enable-background="new 0 0 556.5 247" xml:space="preserve">
<path fill="#FFFFFF" d="M115.47,129.473l0.381,2.155c-0.909,0.709-1.668,1.694-2.283,2.967c-0.613,1.271-0.948,2.554-1.002,3.847
	c-0.056,1.291,0.088,2.901,0.428,4.834c0.382,2.175,0.866,3.875,1.443,5.104c0.584,1.229,1.338,2.241,2.269,3.041
	c0.932,0.799,1.915,1.396,2.95,1.799l0.388,2.174c-2.074-0.451-4.085-1.645-6.039-3.586c-1.958-1.937-3.238-4.623-3.844-8.06
	c-0.538-3.054-0.323-5.849,0.641-8.386C111.768,132.829,113.321,130.864,115.47,129.473z"/>
<path fill="#FFFFFF" d="M131.319,126.675c2.424,0.607,4.532,1.892,6.331,3.854c1.796,1.96,2.978,4.548,3.544,7.761
	c0.544,3.101,0.357,5.842-0.566,8.229c-0.926,2.385-2.504,4.407-4.74,6.076l-0.379-2.175c1.025-0.899,1.82-1.946,2.382-3.147
	c0.557-1.198,0.859-2.437,0.907-3.713c0.048-1.278-0.096-2.863-0.43-4.759c-0.353-2.006-0.785-3.608-1.301-4.812
	c-0.514-1.197-1.281-2.273-2.306-3.225c-1.022-0.949-2.045-1.593-3.059-1.931L131.319,126.675z"/>
<path fill="#FFFFFF" d="M147.029,141.811l-1.55-8.785l-1.964,0.347l-0.413-2.342l1.965-0.345l-0.344-1.946
	c-0.289-1.64-0.142-2.834,0.445-3.58c0.588-0.752,1.352-1.207,2.299-1.375c2.044-0.358,3.411,0.468,4.102,2.481l-2.292,0.774
	c-0.244-0.849-0.66-1.219-1.243-1.115c-0.4,0.069-0.651,0.257-0.752,0.556c-0.1,0.297-0.071,0.896,0.088,1.795l0.342,1.942
	l2.312-0.409l0.413,2.34l-2.312,0.408l1.549,8.786l2.562-0.45l0.418,2.354l-7.175,1.264l-0.415-2.354L147.029,141.811z"/>
<path fill="#FFFFFF" d="M152.927,136.251c-0.365-2.08,0.02-3.908,1.158-5.481c1.139-1.576,2.696-2.535,4.675-2.888
	c1.94-0.343,3.722,0.021,5.349,1.093c1.625,1.064,2.623,2.659,2.995,4.773c0.374,2.119-0.016,3.957-1.172,5.521
	c-1.158,1.562-2.707,2.518-4.662,2.859c-2.003,0.354-3.803-0.02-5.398-1.115C154.274,139.917,153.293,138.329,152.927,136.251z
	 M155.724,135.749c0.234,1.33,0.844,2.349,1.822,3.052c0.983,0.705,2.075,0.951,3.27,0.739c1.217-0.213,2.161-0.821,2.83-1.827
	c0.672-1.002,0.889-2.164,0.658-3.477c-0.231-1.32-0.842-2.334-1.828-3.043c-0.988-0.709-2.073-0.959-3.263-0.748
	c-1.243,0.218-2.195,0.839-2.848,1.854C155.712,133.314,155.496,134.464,155.724,135.749z"/>
<path fill="#FFFFFF" d="M169.277,133.366c-0.366-2.078,0.02-3.905,1.159-5.481c1.138-1.572,2.699-2.535,4.676-2.883
	c1.939-0.344,3.723,0.021,5.349,1.088c1.622,1.067,2.623,2.662,2.995,4.776c0.374,2.118-0.019,3.959-1.173,5.521
	c-1.156,1.562-2.709,2.521-4.659,2.86c-2.006,0.354-3.806-0.017-5.401-1.114C170.626,137.034,169.645,135.443,169.277,133.366z
	 M172.075,132.866c0.233,1.332,0.844,2.349,1.823,3.054c0.981,0.702,2.071,0.949,3.267,0.737c1.22-0.214,2.162-0.824,2.833-1.83
	c0.669-1.002,0.888-2.159,0.657-3.474c-0.234-1.32-0.841-2.336-1.828-3.043c-0.986-0.707-2.075-0.957-3.264-0.75
	c-1.245,0.222-2.193,0.84-2.847,1.854C172.064,130.43,171.85,131.581,172.075,132.866z"/>
<path fill="#FFFFFF" d="M203.072,131.932l0.417,2.354l-5.069,0.895l-0.351-1.98c-1.059,1.703-2.534,2.719-4.431,3.053
	c-1.755,0.312-3.4-0.018-4.94-0.98c-1.54-0.963-2.503-2.551-2.895-4.76c-0.39-2.217-0.016-4.09,1.122-5.611
	c1.141-1.521,2.566-2.434,4.286-2.736c1.818-0.321,3.533,0.125,5.147,1.331l-0.939-5.333l-2.591,0.457l-0.416-2.354l5.237-0.923
	l3.001,17.018L203.072,131.932z M188.622,129.939c0.261,1.49,0.882,2.558,1.861,3.209c0.984,0.647,2.059,0.871,3.228,0.662
	c1.133-0.197,2.065-0.795,2.793-1.791c0.73-0.996,0.964-2.235,0.701-3.722c-0.264-1.494-0.91-2.543-1.938-3.147
	c-1.033-0.604-2.104-0.806-3.22-0.61c-1.197,0.214-2.125,0.839-2.783,1.878C188.605,127.458,188.391,128.634,188.622,129.939z"/>
<path fill="#E11B22" d="M131.207,143.741c-1.504,2.675-2.688,5.079-3.558,7.226c-1.72-1.838-3.756-3.726-6.102-5.656
	c-0.393-0.352-0.67-0.592-0.83-0.729c-1.46-1.248-2.496-2.313-3.115-3.203c-0.616-0.885-1.014-1.824-1.192-2.813
	c-0.248-1.338-0.068-2.502,0.533-3.487s3.058-2.804,5.456-1.567c0.73,0.373,2.398,1.768,2.398,1.768s0.992-1.739,1.521-2.414
	c1.729-2.211,4.825-1.238,5.735-0.531c0.907,0.714,1.488,1.738,1.73,3.081c0.173,0.971,0.139,1.978-0.124,3.01
	c-0.261,1.036-0.857,2.416-1.794,4.14C131.748,142.787,131.523,143.184,131.207,143.741L131.207,143.741z"/>
<path fill="#FFFFFF" d="M117.463,0C52.592,0,0,52.59,0,117.464s52.592,117.463,117.463,117.463
	c64.877,0,117.464-52.59,117.464-117.463C234.927,52.59,182.34,0,117.463,0z M117.463,224.882
	c-59.23,0-107.42-48.188-107.42-107.418c0-59.231,48.189-107.421,107.42-107.421c59.232,0,107.421,48.189,107.421,107.421
	C224.884,176.693,176.695,224.882,117.463,224.882z"/>
<path fill="#FFFFFF" d="M206.872,79.693c-2.433-5.751-5.443-11.297-8.947-16.483c-3.471-5.138-7.456-9.97-11.847-14.36
	c-4.392-4.391-9.223-8.377-14.361-11.848c-5.187-3.505-10.732-6.515-16.482-8.947c-11.963-5.061-24.674-7.626-37.771-7.626
	c-13.097,0-25.805,2.565-37.769,7.626c-5.749,2.433-11.294,5.442-16.482,8.947c-5.138,3.471-9.97,7.457-14.358,11.848
	c-4.391,4.391-8.377,9.223-11.848,14.36c-3.504,5.187-6.516,10.732-8.947,16.483c-5.059,11.964-7.625,24.672-7.625,37.771
	s2.566,25.808,7.625,37.771c2.432,5.75,5.443,11.296,8.947,16.483c3.471,5.138,7.457,9.97,11.848,14.358
	c4.389,4.392,9.221,8.377,14.358,11.849c5.188,3.505,10.733,6.515,16.482,8.945c11.964,5.06,24.671,7.627,37.769,7.627
	c13.098,0,25.809-2.567,37.771-7.627c5.75-2.433,11.296-5.44,16.482-8.945c5.139-3.472,9.97-7.457,14.361-11.849
	c4.391-4.391,8.376-9.223,11.847-14.358c3.504-5.188,6.515-10.733,8.947-16.483c5.06-11.963,7.626-24.672,7.626-37.771
	S211.932,91.657,206.872,79.693z M117.463,210.417c-51.252,0-92.95-41.699-92.95-92.954c0-51.256,41.698-92.956,92.95-92.956
	c51.256,0,92.955,41.7,92.955,92.956C210.418,168.716,168.719,210.417,117.463,210.417z"/>
<path fill="#FFFFFF" d="M49.445,110.551l1.52,8.627l-4.005,0.706c-0.497-1.612-1.392-2.76-2.685-3.438
	c-1.297-0.681-2.699-0.887-4.207-0.619c-2.012,0.354-3.52,1.353-4.525,2.996c-1.005,1.645-1.307,3.62-0.896,5.933
	c0.378,2.149,1.311,3.944,2.793,5.375c1.484,1.432,3.356,1.948,5.621,1.549c3.143-0.553,5.157-2.447,6.046-5.684l4.007,1.09
	c-1.24,4.9-4.416,7.803-9.523,8.704c-3.611,0.636-6.675-0.097-9.184-2.196c-2.512-2.101-4.05-4.761-4.616-7.982
	c-0.608-3.44,0.024-6.481,1.891-9.118c1.868-2.638,4.28-4.218,7.234-4.738c2.53-0.445,4.796-0.076,6.804,1.108l-0.28-1.602
	L49.445,110.551z"/>
<path fill="#FFFFFF" d="M79.588,124.652l0.703,3.988l-7.827,1.377l-0.489-2.783c-1.798,2.488-4.031,3.971-6.702,4.44
	c-2.074,0.365-3.997,0.009-5.769-1.075c-1.771-1.08-2.84-2.673-3.211-4.779c-0.373-2.119,0.127-4.025,1.509-5.708
	c1.378-1.686,3.217-2.73,5.511-3.135c2.136-0.376,4.316-0.097,6.538,0.84l-0.397-2.264c-0.206-1.164-0.475-2.038-0.803-2.631
	c-0.332-0.588-0.947-1.062-1.844-1.422c-0.898-0.361-1.999-0.425-3.304-0.195c-2.245,0.397-3.716,1.58-4.407,3.546l-4.486-0.375
	c1.274-3.886,4.246-6.239,8.912-7.063c1.713-0.301,3.233-0.332,4.564-0.088c1.332,0.244,2.367,0.678,3.108,1.298
	c0.741,0.624,1.295,1.341,1.657,2.152c0.361,0.81,0.706,2.144,1.031,3.998l1.863,10.558L79.588,124.652z M70.522,121.61
	c-2.199-1.167-4.288-1.576-6.268-1.227c-1.242,0.219-2.217,0.762-2.921,1.63c-0.704,0.871-0.956,1.88-0.754,3.025
	c0.188,1.069,0.712,1.901,1.567,2.496c0.861,0.594,1.918,0.778,3.175,0.561c2.167-0.385,4.058-1.657,5.669-3.819L70.522,121.61z"/>
<path fill="#FFFFFF" d="M86.661,103.989l0.488,2.758c2.506-2.58,4.95-4.081,7.32-4.498c1.479-0.262,2.762-0.127,3.852,0.403
	c1.093,0.527,1.875,1.271,2.35,2.233c0.477,0.959,0.888,2.415,1.232,4.363l1.962,11.123l3.842-0.676l0.704,3.982l-8.321,1.47
	l-2.632-14.92c-0.304-1.729-0.762-2.812-1.375-3.245c-0.61-0.435-1.291-0.586-2.047-0.454c-1.979,0.351-4.049,1.711-6.206,4.082
	l2.153,12.211l3.934-0.695l0.704,3.984l-12.422,2.188l-0.703-3.983l4.008-0.704l-2.619-14.849l-4.008,0.704l-0.702-3.981
	L86.661,103.989z"/>
<path fill="#FFFFFF" d="M106.714,104.561l-0.701-3.984l2.97-0.523l-0.619-3.512l3.755-4.891l1.342,7.611l4.217-0.743l0.704,3.984
	l-4.22,0.745l1.955,11.076c0.312,1.776,0.606,2.854,0.873,3.234c0.271,0.385,0.799,0.505,1.584,0.367
	c0.834-0.146,1.624-0.448,2.368-0.904l0.721,4.079c-1.076,0.609-2.188,1.015-3.335,1.219c-1.369,0.241-2.527,0.134-3.484-0.321
	c-0.953-0.457-1.622-1.121-2.002-1.992c-0.38-0.873-0.768-2.427-1.162-4.656l-1.995-11.314L106.714,104.561z"/>
<path fill="#FFFFFF" d="M147.208,106.243l-19.187,3.382c0.653,2.058,1.787,3.613,3.398,4.675c1.614,1.061,3.496,1.402,5.647,1.02
	c3.131-0.55,5.382-2.242,6.763-5.08l4.266,1.048c-0.935,2.224-2.349,3.997-4.237,5.326c-1.888,1.331-3.951,2.194-6.201,2.59
	c-3.488,0.615-6.664,0.054-9.52-1.688c-2.859-1.739-4.613-4.455-5.265-8.147c-0.618-3.506,0.078-6.602,2.094-9.289
	c2.014-2.688,4.583-4.307,7.711-4.858c3.061-0.54,6.033,0.073,8.915,1.843C144.473,98.831,146.343,101.891,147.208,106.243z
	 M142.015,103.805c-0.597-1.548-1.686-2.852-3.266-3.91c-1.579-1.057-3.353-1.413-5.315-1.067c-1.791,0.317-3.22,1.174-4.286,2.567
	c-1.066,1.395-1.579,3.044-1.533,4.948L142.015,103.805z"/>
<path fill="#FFFFFF" d="M174.88,101.364l-19.188,3.381c0.654,2.057,1.788,3.615,3.4,4.675c1.613,1.062,3.495,1.399,5.649,1.022
	c3.126-0.552,5.38-2.246,6.758-5.08l4.269,1.044c-0.939,2.226-2.348,4-4.238,5.328c-1.888,1.331-3.952,2.193-6.201,2.591
	c-3.489,0.613-6.662,0.053-9.52-1.688c-2.859-1.739-4.614-4.456-5.266-8.148c-0.619-3.505,0.08-6.601,2.093-9.289
	c2.012-2.688,4.584-4.309,7.71-4.856c3.064-0.543,6.035,0.072,8.916,1.84C172.143,93.952,174.016,97.011,174.88,101.364z
	 M169.686,98.924c-0.599-1.548-1.685-2.849-3.265-3.907c-1.578-1.057-3.352-1.412-5.314-1.066c-1.793,0.316-3.224,1.171-4.29,2.565
	c-1.063,1.396-1.575,3.045-1.532,4.949L169.686,98.924z"/>
<path fill="#FFFFFF" d="M184.242,86.784l0.484,2.757c2.51-2.58,4.951-4.08,7.324-4.501c1.478-0.259,2.76-0.125,3.85,0.404
	c1.091,0.528,1.873,1.274,2.352,2.234c0.478,0.961,0.887,2.416,1.23,4.364l1.962,11.126l3.844-0.678l0.699,3.982l-8.319,1.466
	l-2.631-14.918c-0.304-1.729-0.762-2.81-1.372-3.245c-0.613-0.436-1.295-0.588-2.049-0.453c-1.98,0.348-4.049,1.709-6.207,4.082
	l2.151,12.21l3.937-0.693l0.702,3.983l-12.42,2.189l-0.704-3.982l4.009-0.706l-2.617-14.849l-4.008,0.705l-0.705-3.984
	L184.242,86.784z"/>
<circle cx="308.356" cy="62.171" r="60.038"/>
<path fill="#FFFFFF" d="M308.356,7.267c-30.274,0-54.903,24.631-54.903,54.904s24.629,54.904,54.903,54.904
	c30.272,0,54.902-24.631,54.902-54.904S338.63,7.267,308.356,7.267z"/>
<circle cx="308.356" cy="62.171" r="48.553"/>
<path fill="#A7A9AC" d="M308.356,111.767c-6.694,0-13.189-1.312-19.306-3.897c-2.939-1.244-5.773-2.783-8.426-4.574
	c-2.625-1.773-5.094-3.811-7.338-6.054c-2.244-2.245-4.281-4.715-6.055-7.341c-1.791-2.65-3.33-5.485-4.573-8.424
	c-2.587-6.115-3.898-12.611-3.898-19.306c0-6.695,1.312-13.19,3.898-19.306c1.243-2.939,2.782-5.773,4.573-8.425
	c1.771-2.626,3.811-5.096,6.055-7.34c2.244-2.243,4.713-4.28,7.338-6.056c2.652-1.791,5.486-3.329,8.426-4.572
	c6.114-2.587,12.609-3.897,19.306-3.897c6.693,0,13.188,1.311,19.306,3.897c2.938,1.243,5.771,2.781,8.426,4.572
	c2.625,1.775,5.096,3.812,7.34,6.056c2.243,2.244,4.28,4.714,6.055,7.34c1.793,2.651,3.329,5.485,4.572,8.425
	c2.586,6.115,3.897,12.61,3.897,19.306c0,6.694-1.312,13.19-3.897,19.306c-1.243,2.938-2.779,5.773-4.572,8.424
	c-1.772,2.626-3.812,5.096-6.055,7.341c-2.244,2.243-4.715,4.28-7.34,6.054c-2.652,1.791-5.486,3.33-8.426,4.574
	C321.546,110.455,315.051,111.767,308.356,111.767z M308.356,14.66c-26.196,0-47.511,21.314-47.511,47.512
	c0,26.196,21.312,47.51,47.511,47.51c26.197,0,47.511-21.313,47.511-47.51C355.866,35.974,334.554,14.66,308.356,14.66z"/>
<path fill="#FFFFFF" d="M307.337,68.308l0.194,1.104c-0.466,0.362-0.854,0.866-1.167,1.517c-0.313,0.648-0.484,1.305-0.514,1.965
	c-0.027,0.661,0.047,1.485,0.221,2.472c0.193,1.111,0.439,1.98,0.736,2.607c0.299,0.628,0.686,1.146,1.158,1.554
	c0.479,0.409,0.979,0.716,1.509,0.92l0.197,1.111c-1.06-0.23-2.087-0.84-3.087-1.833c-1-0.989-1.654-2.363-1.964-4.118
	c-0.274-1.562-0.165-2.99,0.327-4.286C305.444,70.025,306.239,69.021,307.337,68.308z"/>
<path fill="#FFFFFF" d="M315.438,66.88c1.238,0.311,2.316,0.966,3.234,1.97c0.918,1.002,1.521,2.324,1.812,3.967
	c0.277,1.585,0.182,2.987-0.291,4.206c-0.474,1.218-1.279,2.253-2.42,3.105l-0.195-1.11c0.522-0.46,0.931-0.996,1.217-1.61
	c0.285-0.612,0.44-1.244,0.465-1.898c0.024-0.653-0.049-1.462-0.22-2.431c-0.181-1.026-0.401-1.845-0.665-2.46
	c-0.263-0.613-0.654-1.162-1.179-1.648c-0.523-0.484-1.046-0.814-1.563-0.985L315.438,66.88z"/>
<path fill="#FFFFFF" d="M323.468,74.617l-0.793-4.492l-1.004,0.177l-0.21-1.195l1.004-0.177l-0.176-0.995
	c-0.147-0.837-0.073-1.447,0.228-1.83c0.303-0.383,0.691-0.617,1.178-0.702c1.044-0.183,1.74,0.238,2.096,1.269l-1.172,0.396
	c-0.125-0.434-0.337-0.623-0.636-0.57c-0.204,0.036-0.334,0.13-0.386,0.282c-0.051,0.153-0.036,0.46,0.045,0.918l0.177,0.994
	L325,68.483l0.21,1.195l-1.182,0.209l0.792,4.492l1.31-0.232l0.213,1.205l-3.667,0.646l-0.212-1.204L323.468,74.617z"/>
<path fill="#FFFFFF" d="M326.481,71.774c-0.188-1.063,0.01-1.998,0.592-2.803c0.582-0.806,1.379-1.296,2.391-1.475
	c0.991-0.176,1.902,0.011,2.734,0.558c0.828,0.545,1.34,1.359,1.528,2.44c0.19,1.084-0.009,2.024-0.601,2.823
	c-0.591,0.799-1.383,1.286-2.381,1.462c-1.025,0.18-1.944-0.01-2.76-0.57C327.171,73.648,326.669,72.836,326.481,71.774z
	 M327.911,71.517c0.12,0.68,0.432,1.2,0.933,1.561c0.501,0.358,1.062,0.485,1.67,0.378c0.621-0.11,1.104-0.421,1.446-0.935
	c0.344-0.513,0.455-1.106,0.337-1.777c-0.118-0.674-0.43-1.193-0.935-1.556c-0.505-0.361-1.062-0.488-1.668-0.382
	c-0.637,0.112-1.121,0.429-1.455,0.946C327.905,70.273,327.796,70.861,327.911,71.517z"/>
<path fill="#FFFFFF" d="M334.839,70.3c-0.188-1.063,0.01-1.997,0.592-2.803c0.582-0.804,1.379-1.295,2.392-1.473
	c0.989-0.175,1.901,0.011,2.731,0.556c0.83,0.546,1.343,1.361,1.532,2.441c0.19,1.084-0.01,2.023-0.6,2.821
	c-0.592,0.8-1.387,1.289-2.383,1.463c-1.024,0.181-1.944-0.009-2.762-0.569C335.528,72.175,335.026,71.362,334.839,70.3z
	 M336.269,70.044c0.121,0.681,0.434,1.201,0.934,1.561c0.502,0.359,1.059,0.485,1.67,0.378c0.623-0.109,1.104-0.422,1.447-0.936
	c0.344-0.513,0.454-1.104,0.337-1.776c-0.12-0.675-0.433-1.192-0.937-1.555c-0.504-0.363-1.061-0.489-1.667-0.383
	c-0.638,0.111-1.122,0.429-1.456,0.948C336.263,68.8,336.153,69.387,336.269,70.044z"/>
<path fill="#FFFFFF" d="M352.112,69.566l0.213,1.202l-2.592,0.458l-0.181-1.013c-0.542,0.87-1.296,1.391-2.265,1.561
	c-0.896,0.158-1.737-0.009-2.525-0.502c-0.787-0.491-1.277-1.304-1.479-2.433c-0.199-1.134-0.009-2.091,0.574-2.868
	c0.581-0.777,1.311-1.244,2.188-1.399c0.93-0.163,1.807,0.062,2.631,0.68l-0.479-2.725l-1.323,0.233l-0.214-1.203l2.678-0.472
	l1.533,8.698L352.112,69.566z M344.726,68.55c0.136,0.76,0.451,1.305,0.953,1.638c0.502,0.331,1.052,0.445,1.648,0.34
	c0.58-0.102,1.056-0.406,1.428-0.916c0.373-0.508,0.492-1.144,0.357-1.901c-0.137-0.764-0.465-1.301-0.99-1.609
	c-0.527-0.308-1.074-0.412-1.646-0.312c-0.611,0.108-1.087,0.428-1.424,0.959C344.718,67.279,344.606,67.881,344.726,68.55z"/>
<path fill="#E11B22" d="M315.38,75.603c-0.768,1.366-1.373,2.597-1.817,3.692c-0.88-0.939-1.92-1.904-3.117-2.893
	c-0.2-0.179-0.345-0.302-0.427-0.372c-0.745-0.638-1.273-1.184-1.592-1.637c-0.312-0.453-0.518-0.933-0.607-1.438
	c-0.126-0.685-0.035-1.28,0.271-1.784c0.308-0.504,1.562-1.433,2.788-0.801c0.372,0.189,1.227,0.902,1.227,0.902
	s0.509-0.889,0.776-1.233c0.885-1.13,2.467-0.634,2.933-0.272c0.465,0.365,0.763,0.89,0.886,1.576
	c0.088,0.494,0.068,1.008-0.063,1.538c-0.133,0.529-0.438,1.235-0.917,2.114C315.656,75.114,315.542,75.317,315.38,75.603
	L315.38,75.603z"/>
<path fill="#FFFFFF" d="M273.591,58.637l0.776,4.41l-2.049,0.361c-0.254-0.824-0.711-1.411-1.373-1.758
	c-0.659-0.348-1.377-0.453-2.147-0.315c-1.026,0.18-1.799,0.69-2.312,1.531c-0.514,0.84-0.668,1.85-0.459,3.031
	c0.192,1.099,0.67,2.017,1.429,2.747c0.758,0.732,1.715,0.995,2.873,0.791c1.606-0.282,2.636-1.251,3.09-2.903l2.047,0.557
	c-0.633,2.506-2.256,3.987-4.864,4.448c-1.849,0.326-3.412-0.048-4.695-1.123c-1.282-1.073-2.067-2.433-2.358-4.079
	c-0.312-1.76,0.015-3.312,0.968-4.66c0.954-1.35,2.188-2.157,3.696-2.423c1.293-0.228,2.451-0.039,3.479,0.565l-0.146-0.818
	L273.591,58.637z"/>
<path fill="#FFFFFF" d="M288.997,65.846l0.358,2.037l-4.002,0.705l-0.25-1.422c-0.918,1.271-2.061,2.028-3.426,2.27
	c-1.06,0.187-2.041,0.003-2.947-0.548c-0.903-0.554-1.45-1.367-1.642-2.444c-0.19-1.084,0.063-2.058,0.771-2.918
	c0.705-0.861,1.646-1.396,2.817-1.603c1.093-0.191,2.205-0.049,3.343,0.43l-0.205-1.157c-0.104-0.594-0.241-1.041-0.407-1.344
	c-0.171-0.301-0.484-0.543-0.943-0.728s-1.021-0.218-1.688-0.099c-1.146,0.202-1.898,0.808-2.252,1.811l-2.295-0.191
	c0.652-1.985,2.172-3.189,4.558-3.609c0.876-0.154,1.651-0.169,2.333-0.045c0.681,0.124,1.21,0.347,1.589,0.663
	c0.38,0.318,0.662,0.686,0.847,1.1c0.186,0.415,0.361,1.097,0.527,2.043l0.953,5.397L288.997,65.846z M284.361,64.292
	c-1.122-0.598-2.189-0.807-3.202-0.629c-0.636,0.112-1.134,0.391-1.492,0.835s-0.489,0.959-0.388,1.546
	c0.098,0.548,0.365,0.973,0.804,1.276c0.438,0.303,0.979,0.397,1.622,0.285c1.107-0.196,2.072-0.847,2.896-1.952L284.361,64.292z"/>
<path fill="#FFFFFF" d="M292.611,55.285l0.25,1.408c1.281-1.318,2.529-2.085,3.74-2.299c0.756-0.133,1.412-0.063,1.97,0.206
	c0.559,0.271,0.959,0.65,1.2,1.143c0.244,0.49,0.453,1.234,0.632,2.229l1.002,5.686l1.964-0.345l0.357,2.035l-4.252,0.751
	l-1.347-7.627c-0.153-0.883-0.39-1.436-0.702-1.657c-0.312-0.223-0.66-0.3-1.046-0.232c-1.012,0.179-2.069,0.874-3.172,2.087
	l1.101,6.24l2.012-0.355l0.359,2.037l-6.351,1.119l-0.358-2.036l2.049-0.36l-1.338-7.59l-2.05,0.36l-0.358-2.035L292.611,55.285z"/>
<path fill="#FFFFFF" d="M302.862,55.577l-0.359-2.036l1.519-0.268l-0.314-1.796l1.919-2.499l0.687,3.891l2.155-0.38l0.359,2.037
	l-2.157,0.38l0.999,5.662c0.16,0.907,0.31,1.458,0.446,1.652c0.138,0.197,0.406,0.258,0.811,0.188
	c0.425-0.075,0.829-0.229,1.21-0.462l0.367,2.086c-0.549,0.311-1.117,0.518-1.703,0.622c-0.7,0.122-1.292,0.067-1.781-0.164
	c-0.486-0.233-0.828-0.573-1.021-1.019c-0.194-0.446-0.395-1.24-0.595-2.379l-1.021-5.783L302.862,55.577z"/>
<path fill="#FFFFFF" d="M323.559,56.435l-9.806,1.729c0.334,1.052,0.913,1.847,1.736,2.391c0.826,0.541,1.787,0.716,2.888,0.521
	c1.599-0.283,2.749-1.147,3.455-2.598l2.181,0.536c-0.479,1.136-1.2,2.042-2.166,2.723c-0.964,0.68-2.021,1.12-3.17,1.323
	c-1.782,0.313-3.405,0.026-4.865-0.863c-1.462-0.889-2.355-2.277-2.688-4.166c-0.315-1.791,0.04-3.373,1.069-4.745
	c1.027-1.375,2.343-2.203,3.939-2.484c1.564-0.275,3.084,0.038,4.558,0.941C322.162,52.646,323.116,54.213,323.559,56.435z
	 M320.904,55.19c-0.308-0.791-0.86-1.458-1.669-1.998c-0.81-0.54-1.714-0.722-2.719-0.546c-0.916,0.161-1.646,0.6-2.188,1.313
	c-0.546,0.713-0.81,1.555-0.784,2.528L320.904,55.19z"/>
<path fill="#FFFFFF" d="M337.702,53.943l-9.809,1.729c0.334,1.051,0.914,1.847,1.738,2.389s1.786,0.716,2.887,0.521
	c1.601-0.281,2.75-1.146,3.454-2.596l2.184,0.534c-0.479,1.137-1.199,2.045-2.166,2.724c-0.965,0.679-2.021,1.121-3.17,1.324
	c-1.783,0.312-3.405,0.025-4.865-0.864c-1.462-0.888-2.358-2.277-2.69-4.164c-0.315-1.791,0.04-3.374,1.068-4.748
	c1.029-1.374,2.344-2.201,3.941-2.483c1.564-0.276,3.084,0.038,4.557,0.942C336.304,50.154,337.261,51.717,337.702,53.943z
	 M335.048,52.695c-0.306-0.79-0.863-1.455-1.669-1.996c-0.808-0.541-1.714-0.723-2.716-0.546c-0.917,0.161-1.648,0.599-2.192,1.312
	c-0.544,0.714-0.807,1.557-0.783,2.529L335.048,52.695z"/>
<path fill="#FFFFFF" d="M342.487,46.491l0.248,1.408c1.28-1.319,2.528-2.086,3.741-2.3c0.757-0.133,1.411-0.064,1.97,0.206
	c0.558,0.271,0.959,0.651,1.2,1.143c0.243,0.49,0.454,1.234,0.631,2.229l1.003,5.688l1.964-0.346l0.356,2.035l-4.252,0.75
	l-1.346-7.626c-0.154-0.884-0.39-1.436-0.702-1.658c-0.312-0.222-0.661-0.301-1.047-0.232c-1.012,0.179-2.067,0.874-3.172,2.088
	l1.1,6.24l2.015-0.354l0.356,2.036l-6.349,1.118l-0.359-2.036l2.049-0.36l-1.338-7.59l-2.049,0.36l-0.358-2.036L342.487,46.491z"/>
<path fill="none" stroke="#FFFFFF" stroke-width="2.5882" stroke-linecap="round" d="M304.585,166.662
	c-9.478-1.193-45.606-2.926-54.672-0.633c6.828,4.75,12.688,14.658,18.476,20.277c-5.529-5.265-14.05-15.91-20.599-20.343
	c3.728-7.05,8.362-18.896,16.192-21.795"/>
<path fill="none" stroke="#FFFFFF" stroke-width="2.5882" stroke-linecap="round" d="M358.214,149.876
	c9.511,0.888,45.16,7.013,53.514,11.213c-7.692,3.159-15.559,11.563-22.425,15.8c6.538-3.94,17.159-12.492,24.515-15.402
	c-2.113-7.688-4.077-20.256-11.098-24.781"/>
<path fill="none" stroke="#A7A9AC" stroke-width="1.6248" stroke-linecap="round" d="M285.629,221.376
	c-5.988-0.271-28.686,0.46-34.242,2.351c4.512,2.629,8.676,8.535,12.579,11.762c-3.726-3.016-9.591-9.25-13.911-11.695
	c1.979-4.6,4.284-12.244,9.038-14.45"/>
<path fill="none" stroke="#A7A9AC" stroke-width="1.6248" stroke-linecap="round" d="M372.295,219.527
	c5.97,0.557,28.35,4.402,33.594,7.039c-4.83,1.982-9.767,7.261-14.076,9.918c4.104-2.475,10.771-7.844,15.388-9.67
	c-1.326-4.826-2.561-12.717-6.965-15.557"/>
<g>
	<g>
		<path fill="#231F20" d="M399.973,4.992v15.154c-1.213-1.322-4.299-2.534-6.777-2.534c-7.439,0-13.666,6.501-13.666,14.546
			c0,7.935,6.062,14.492,13.666,14.492c2.534,0,5.564-0.992,6.777-2.59v1.984h7.826V4.992H399.973z M393.967,38.879
			c-3.582,0-6.502-2.753-6.502-6.721c0-3.912,2.92-6.722,6.502-6.722c3.637,0,6.338,2.81,6.338,6.722
			C400.305,36.126,397.604,38.879,393.967,38.879z"/>
		<path fill="#231F20" d="M426.443,25.574c-0.784-0.281-1.626-0.393-2.522-0.393c-3.083,0-5.716,2.297-5.716,6.836V46.14h-7.957
			v-28.3h7.957v1.96c1.738-1.847,4.091-2.577,6.275-2.577c0.674,0,1.234,0,1.963,0.111V25.574z"/>
		<path fill="#231F20" d="M453.141,17.175c-2.538,0-5.572,1.215-6.787,2.54v-1.933h-7.839v41.173h7.839V43.667
			c1.489,1.767,4.305,2.594,6.622,2.594c7.617,0,13.855-6.567,13.855-14.627C466.831,23.688,460.814,17.175,453.141,17.175z
			 M452.369,38.479c-3.644,0-6.347-2.814-6.347-6.789c0-3.917,2.703-6.677,6.347-6.677c3.588,0,6.512,2.76,6.512,6.677
			C458.881,35.664,455.957,38.479,452.369,38.479z"/>
		<g>
			<rect x="428.244" y="17.776" fill="#231F20" width="7.979" height="28.375"/>
			<path fill="#231F20" d="M427.668,54.527c0-2.185,2.078-4.264,4.484-4.264c2.624,0,4.646,2.022,4.646,4.264
				c0,2.407-2.022,4.429-4.646,4.429C429.746,58.956,427.668,56.934,427.668,54.527z"/>
		</g>
	</g>
	<g>
		<path fill="#231F20" d="M475.69,46.65c-7.688,0-13.942-6.612-13.942-14.738c0-8.153,6.255-14.788,13.942-14.788
			c1.89,0,4.125,0.66,5.712,1.605V4.992h9.131v41.076h-9.131v-0.954C479.783,46.127,477.531,46.65,475.69,46.65z M475.69,18.731
			c-6.802,0-12.335,5.913-12.335,13.181c0,7.24,5.533,13.128,12.335,13.128c2.371,0,4.952-0.953,5.875-2.17l1.445-1.906v3.496h5.913
			V6.601h-5.913v15.83l-1.397-1.523C480.672,19.88,477.939,18.731,475.69,18.731z M476.432,39.18c-4.022,0-7.057-3.125-7.057-7.268
			c0-4.074,3.101-7.266,7.057-7.266c3.997,0,6.896,3.056,6.896,7.266C483.327,36.125,480.429,39.18,476.432,39.18z M476.432,26.254
			c-3.105,0-5.446,2.432-5.446,5.658c0,3.227,2.341,5.659,5.446,5.659c3.113,0,5.288-2.327,5.288-5.659
			C481.72,28.634,479.496,26.254,476.432,26.254z"/>
		<g>
			<path fill="#231F20" d="M502.105,46.142h-9.121V17.807h9.121v0.924c1.449-0.98,3.217-1.505,5.126-1.505
				c0.656,0,1.226,0,1.974,0.114l0.681,0.104v9.609l-1.073-0.382c-0.61-0.219-1.301-0.325-2.111-0.325
				c-2.791,0-4.596,2.219-4.596,5.654V46.142z M494.592,44.534h5.908V32c0-5.015,3.113-7.26,6.201-7.26
				c0.564,0,1.088,0.044,1.578,0.133v-6.019c-0.342-0.022-0.67-0.022-1.048-0.022c-1.229,0-3.56,0.284-5.343,2.182L500.5,22.49
				v-3.077h-5.908V44.534z"/>
		</g>
		<g>
			<path fill="#231F20" d="M532.441,58.956h-9.146V17.76h9.146v1.026c1.59-0.946,3.829-1.61,5.722-1.61
				c7.702,0,13.965,6.598,13.965,14.708c0,8.197-6.337,14.869-14.125,14.869c-1.636,0-3.84-0.427-5.562-1.543V58.956z
				 M524.905,57.347h5.925V41.249l1.421,1.683c1.287,1.527,3.817,2.208,5.752,2.208c6.9,0,12.515-5.947,12.515-13.256
				c0-7.222-5.543-13.097-12.354-13.097c-2.319,0-4.987,1.149-5.934,2.181l-1.399,1.525v-3.122h-5.925V57.347z M537.418,39.269
				c-4.001,0-6.906-3.083-6.906-7.331c0-4.189,2.905-7.227,6.906-7.227c4.031,0,7.069,3.106,7.069,7.227
				C544.487,36.119,541.449,39.269,537.418,39.269z M537.418,26.322c-3.117,0-5.295,2.309-5.295,5.616
				c0,3.314,2.228,5.72,5.295,5.72c3.113,0,5.457-2.459,5.457-5.72C542.875,28.737,540.531,26.322,537.418,26.322z"/>
		</g>
		<g>
			<g>
				<path fill="#231F20" d="M520.916,46.173h-9.141V17.776h9.141V46.173z M513.385,44.562h5.922V19.387h-5.922V44.562z"/>
			</g>
			<path fill="#231F20" d="M516.266,48.913c-2.746,0-5.154,2.309-5.154,4.942c0,2.765,2.359,5.101,5.154,5.101
				c2.93,0,5.312-2.288,5.312-5.101C521.578,51.175,519.146,48.913,516.266,48.913z M516.266,57.346
				c-1.889,0-3.545-1.631-3.545-3.491c0-1.713,1.723-3.332,3.545-3.332c2.008,0,3.702,1.525,3.702,3.332
				C519.968,55.78,518.307,57.346,516.266,57.346z"/>
		</g>
	</g>
</g>
</svg>
